<?xml version="1.0" encoding="iso-8859-1"?>
<!-- Generator: Adobe Illustrator 16.0.0, SVG Export Plug-In . SVG Version: 6.00 Build 0)  -->
<!DOCTYPE svg PUBLIC "-//W3C//DTD SVG 1.1//EN" "http://www.w3.org/Graphics/SVG/1.1/DTD/svg11.dtd">
<svg version="1.1" id="Calque_1" xmlns="http://www.w3.org/2000/svg" xmlns:xlink="http://www.w3.org/1999/xlink" x="0px" y="0px"
	 width="65.559px" height="65.556px" viewBox="0 0 65.559 65.556" style="enable-background:new 0 0 65.559 65.556;"
	 xml:space="preserve">
<g>
	<g>
		<path style="fill:#E72264;" d="M65.559,32.78C65.559,14.675,50.882,0,32.782,0C14.679,0,0,14.675,0,32.78
			c0,18.106,14.679,32.776,32.782,32.776C50.882,65.556,65.559,50.886,65.559,32.78z"/>
		<g>
			<g>
				<g>
					<g>
						<path style="fill:#C82157;" d="M16.258,23.288l14.378,26.906c0.078,0.144,0.285,0.135,0.352-0.011l5.735-12.717
							c0.029-0.055,0.023-0.116-0.005-0.17l-7.583-14.192c-0.035-0.065-0.104-0.103-0.174-0.103H16.431
							C16.284,23.001,16.188,23.157,16.258,23.288z"/>
					</g>
				</g>
			</g>
			<path style="fill:#C82157;" d="M34.816,27.596H52.28c0.146,0,0.238,0.145,0.18,0.275L44.465,45.59
				c-0.068,0.146-0.273,0.154-0.35,0.011l-9.472-17.718C34.573,27.752,34.667,27.596,34.816,27.596z"/>
		</g>
		<g>
			<g>
				<g>
					<g>
						<path style="fill:#EA4B82;" d="M14.592,23.288l14.38,26.906c0.074,0.144,0.281,0.135,0.35-0.011l5.735-12.717
							c0.025-0.055,0.021-0.116-0.005-0.17l-7.587-14.192c-0.033-0.065-0.1-0.103-0.172-0.103h-12.53
							C14.616,23.001,14.521,23.157,14.592,23.288z"/>
					</g>
				</g>
			</g>
			<path style="fill:#EA4B82;" d="M33.146,27.596h17.468c0.142,0,0.236,0.145,0.178,0.275L42.795,45.59
				c-0.064,0.146-0.273,0.154-0.348,0.011l-9.474-17.718C32.906,27.752,33,27.596,33.146,27.596z"/>
		</g>
		<g>
			<g>
				<g>
					<g>
						<path style="fill:#FFFFFF;" d="M12.892,23.288l14.38,26.906c0.074,0.144,0.283,0.135,0.348-0.011l5.736-12.717
							c0.024-0.055,0.022-0.116-0.005-0.17l-7.586-14.192c-0.034-0.065-0.098-0.103-0.17-0.103H13.063
							C12.915,23.001,12.821,23.157,12.892,23.288z"/>
					</g>
				</g>
			</g>
			<path style="fill:#FFFFFF;" d="M31.447,27.596h17.465c0.144,0,0.238,0.145,0.181,0.275L41.097,45.59
				c-0.065,0.146-0.272,0.154-0.351,0.011l-9.47-17.718C31.204,27.752,31.3,27.596,31.447,27.596z"/>
		</g>
	</g>
</g>
</svg>
