<?xml version="1.0" standalone="no"?>
<!DOCTYPE svg PUBLIC "-//W3C//DTD SVG 20010904//EN"
 "http://www.w3.org/TR/2001/REC-SVG-20010904/DTD/svg10.dtd">
<svg version="1.0" xmlns="http://www.w3.org/2000/svg"
 width="250.000000pt" height="250.000000pt" viewBox="0 0 250.000000 250.000000"
 preserveAspectRatio="xMidYMid meet">
<metadata>
Created by potrace 1.11, written by Peter Selinger 2001-2013
</metadata>
<g transform="translate(0.000000,250.000000) scale(0.100000,-0.100000)"
fill="#000000" stroke="none">
<path d="M1065 2486 c-293 -49 -516 -166 -718 -375 -166 -173 -271 -372 -323
-613 -25 -115 -25 -371 0 -486 81 -377 322 -694 657 -865 183 -93 349 -132
569 -132 353 0 634 116 881 364 184 184 291 379 345 633 25 115 25 371 0 486
-52 243 -157 441 -326 616 -185 191 -394 306 -655 361 -106 23 -327 28 -430
11z m61 -1126 c79 -146 143 -271 144 -279 0 -13 -147 -346 -197 -445 -14 -27
-28 -45 -33 -40 -9 10 -535 990 -546 1017 -6 16 8 17 242 15 l247 -3 143 -265z
m744 81 c0 -23 -299 -666 -309 -666 -11 0 -86 133 -302 543 l-71 132 341 0
c196 0 341 -4 341 -9z"/>
</g>
</svg>
